<mxfile host="app.diagrams.net" modified="2023-10-02T16:01:18.170Z" agent="Mozilla/5.0 (Macintosh; Intel Mac OS X 10_15_7) AppleWebKit/537.36 (KHTML, like Gecko) Chrome/117.0.0.0 Safari/537.36" etag="CYJwIIAiaG2DSlEA7YSQ" version="22.0.0" type="github">
  <diagram name="Page-1" id="0783ab3e-0a74-02c8-0abd-f7b4e66b4bec">
    <mxGraphModel dx="1193" dy="763" grid="1" gridSize="10" guides="1" tooltips="1" connect="1" arrows="1" fold="1" page="1" pageScale="1" pageWidth="850" pageHeight="1100" background="none" math="0" shadow="0">
      <root>
        <mxCell id="0" />
        <mxCell id="1" parent="0" />
        <mxCell id="ziaKLDMUKJMTF37oqn9J-9" value="" style="edgeStyle=orthogonalEdgeStyle;rounded=0;orthogonalLoop=1;jettySize=auto;html=1;" parent="1" source="ziaKLDMUKJMTF37oqn9J-6" target="ziaKLDMUKJMTF37oqn9J-8" edge="1">
          <mxGeometry relative="1" as="geometry">
            <Array as="points">
              <mxPoint x="400" y="290" />
              <mxPoint x="400" y="290" />
            </Array>
          </mxGeometry>
        </mxCell>
        <mxCell id="ziaKLDMUKJMTF37oqn9J-6" value="Login" style="html=1;whiteSpace=wrap;rounded=1;" parent="1" vertex="1">
          <mxGeometry x="340" y="210" width="120" height="50" as="geometry" />
        </mxCell>
        <mxCell id="ziaKLDMUKJMTF37oqn9J-8" value="Student" style="rhombus;whiteSpace=wrap;html=1;rounded=0;" parent="1" vertex="1">
          <mxGeometry x="360" y="300" width="80" height="55" as="geometry" />
        </mxCell>
        <mxCell id="ziaKLDMUKJMTF37oqn9J-14" value="" style="endArrow=none;html=1;rounded=0;entryX=0.5;entryY=1;entryDx=0;entryDy=0;" parent="1" target="ziaKLDMUKJMTF37oqn9J-8" edge="1">
          <mxGeometry width="50" height="50" relative="1" as="geometry">
            <mxPoint x="400" y="380" as="sourcePoint" />
            <mxPoint x="430" y="380" as="targetPoint" />
          </mxGeometry>
        </mxCell>
        <mxCell id="ziaKLDMUKJMTF37oqn9J-15" value="" style="endArrow=none;html=1;rounded=0;" parent="1" edge="1">
          <mxGeometry width="50" height="50" relative="1" as="geometry">
            <mxPoint x="80" y="380" as="sourcePoint" />
            <mxPoint x="640" y="380" as="targetPoint" />
            <Array as="points">
              <mxPoint x="400" y="380" />
            </Array>
          </mxGeometry>
        </mxCell>
        <mxCell id="ziaKLDMUKJMTF37oqn9J-17" value="" style="ellipse;html=1;shape=startState;fillColor=#000000;strokeColor=#000000;" parent="1" vertex="1">
          <mxGeometry x="385" y="120" width="30" height="30" as="geometry" />
        </mxCell>
        <mxCell id="ziaKLDMUKJMTF37oqn9J-18" value="" style="edgeStyle=orthogonalEdgeStyle;html=1;verticalAlign=bottom;endArrow=open;endSize=8;strokeColor=#000000;rounded=0;" parent="1" source="ziaKLDMUKJMTF37oqn9J-17" edge="1">
          <mxGeometry relative="1" as="geometry">
            <mxPoint x="400" y="210" as="targetPoint" />
          </mxGeometry>
        </mxCell>
        <mxCell id="ziaKLDMUKJMTF37oqn9J-23" value="Report Lost Item" style="rounded=1;whiteSpace=wrap;html=1;" parent="1" vertex="1">
          <mxGeometry x="40" y="410" width="80" height="40" as="geometry" />
        </mxCell>
        <mxCell id="ziaKLDMUKJMTF37oqn9J-25" value="Help" style="rounded=1;whiteSpace=wrap;html=1;" parent="1" vertex="1">
          <mxGeometry x="600" y="410" width="80" height="40" as="geometry" />
        </mxCell>
        <mxCell id="ziaKLDMUKJMTF37oqn9J-26" value="View Lost Item" style="rounded=1;whiteSpace=wrap;html=1;" parent="1" vertex="1">
          <mxGeometry x="260" y="410" width="80" height="40" as="geometry" />
        </mxCell>
        <mxCell id="ziaKLDMUKJMTF37oqn9J-27" value="Campus Safety" style="rounded=1;whiteSpace=wrap;html=1;" parent="1" vertex="1">
          <mxGeometry x="520" y="500" width="80" height="40" as="geometry" />
        </mxCell>
        <mxCell id="ziaKLDMUKJMTF37oqn9J-44" value="" style="edgeStyle=orthogonalEdgeStyle;rounded=0;orthogonalLoop=1;jettySize=auto;html=1;" parent="1" source="ziaKLDMUKJMTF37oqn9J-31" target="ziaKLDMUKJMTF37oqn9J-34" edge="1">
          <mxGeometry relative="1" as="geometry" />
        </mxCell>
        <mxCell id="ziaKLDMUKJMTF37oqn9J-31" value="Display Maps with Dots" style="rounded=1;whiteSpace=wrap;html=1;" parent="1" vertex="1">
          <mxGeometry x="260" y="480" width="80" height="40" as="geometry" />
        </mxCell>
        <mxCell id="ziaKLDMUKJMTF37oqn9J-32" value="Fill in Lost Item Information" style="rounded=1;whiteSpace=wrap;html=1;" parent="1" vertex="1">
          <mxGeometry x="40" y="490" width="80" height="50" as="geometry" />
        </mxCell>
        <mxCell id="ziaKLDMUKJMTF37oqn9J-34" value="Stretch or Click" style="rhombus;whiteSpace=wrap;html=1;rounded=0;" parent="1" vertex="1">
          <mxGeometry x="260" y="550" width="80" height="55" as="geometry" />
        </mxCell>
        <mxCell id="ziaKLDMUKJMTF37oqn9J-42" value="Click Dots" style="rounded=1;whiteSpace=wrap;html=1;" parent="1" vertex="1">
          <mxGeometry x="200" y="640" width="80" height="40" as="geometry" />
        </mxCell>
        <mxCell id="ziaKLDMUKJMTF37oqn9J-43" value="Use Stretch Bar" style="rounded=1;whiteSpace=wrap;html=1;" parent="1" vertex="1">
          <mxGeometry x="390" y="625" width="80" height="40" as="geometry" />
        </mxCell>
        <mxCell id="ziaKLDMUKJMTF37oqn9J-48" value="Display Item Information" style="rounded=1;whiteSpace=wrap;html=1;" parent="1" vertex="1">
          <mxGeometry x="200" y="710" width="80" height="40" as="geometry" />
        </mxCell>
        <mxCell id="ziaKLDMUKJMTF37oqn9J-49" style="edgeStyle=orthogonalEdgeStyle;rounded=0;orthogonalLoop=1;jettySize=auto;html=1;exitX=0.5;exitY=1;exitDx=0;exitDy=0;" parent="1" edge="1">
          <mxGeometry relative="1" as="geometry">
            <mxPoint x="430" y="750" as="sourcePoint" />
            <mxPoint x="430" y="750" as="targetPoint" />
          </mxGeometry>
        </mxCell>
        <mxCell id="ziaKLDMUKJMTF37oqn9J-75" value="Report Successfully" style="rounded=1;whiteSpace=wrap;html=1;" parent="1" vertex="1">
          <mxGeometry x="40" y="680" width="80" height="40" as="geometry" />
        </mxCell>
        <mxCell id="ziaKLDMUKJMTF37oqn9J-76" value="" style="endArrow=classic;html=1;rounded=0;entryX=0.486;entryY=-0.107;entryDx=0;entryDy=0;entryPerimeter=0;" parent="1" edge="1" target="ziaKLDMUKJMTF37oqn9J-23">
          <mxGeometry width="50" height="50" relative="1" as="geometry">
            <mxPoint x="80" y="380" as="sourcePoint" />
            <mxPoint x="80" y="410" as="targetPoint" />
          </mxGeometry>
        </mxCell>
        <mxCell id="ziaKLDMUKJMTF37oqn9J-77" value="" style="endArrow=classic;html=1;rounded=0;entryX=0.493;entryY=-0.074;entryDx=0;entryDy=0;entryPerimeter=0;" parent="1" edge="1" target="ziaKLDMUKJMTF37oqn9J-32">
          <mxGeometry width="50" height="50" relative="1" as="geometry">
            <mxPoint x="79.44" y="450" as="sourcePoint" />
            <mxPoint x="79.44" y="480" as="targetPoint" />
          </mxGeometry>
        </mxCell>
        <mxCell id="ziaKLDMUKJMTF37oqn9J-78" value="" style="endArrow=classic;html=1;rounded=0;" parent="1" edge="1">
          <mxGeometry width="50" height="50" relative="1" as="geometry">
            <mxPoint x="300" y="380" as="sourcePoint" />
            <mxPoint x="300" y="410" as="targetPoint" />
          </mxGeometry>
        </mxCell>
        <mxCell id="ziaKLDMUKJMTF37oqn9J-80" value="" style="endArrow=classic;html=1;rounded=0;entryX=0.5;entryY=0;entryDx=0;entryDy=0;exitX=0.5;exitY=1;exitDx=0;exitDy=0;" parent="1" target="ziaKLDMUKJMTF37oqn9J-75" edge="1" source="XjXtN_CrpmTkB_k5GkPc-14">
          <mxGeometry width="50" height="50" relative="1" as="geometry">
            <mxPoint x="80" y="630" as="sourcePoint" />
            <mxPoint x="119.77" y="635" as="targetPoint" />
          </mxGeometry>
        </mxCell>
        <mxCell id="ziaKLDMUKJMTF37oqn9J-83" value="" style="endArrow=classic;html=1;rounded=0;" parent="1" edge="1">
          <mxGeometry width="50" height="50" relative="1" as="geometry">
            <mxPoint x="299.55" y="450" as="sourcePoint" />
            <mxPoint x="299.55" y="480" as="targetPoint" />
          </mxGeometry>
        </mxCell>
        <mxCell id="ziaKLDMUKJMTF37oqn9J-85" value="" style="endArrow=classic;html=1;rounded=0;entryX=0.493;entryY=-0.093;entryDx=0;entryDy=0;entryPerimeter=0;" parent="1" target="ziaKLDMUKJMTF37oqn9J-43" edge="1">
          <mxGeometry width="50" height="50" relative="1" as="geometry">
            <mxPoint x="300" y="605" as="sourcePoint" />
            <mxPoint x="440" y="620" as="targetPoint" />
          </mxGeometry>
        </mxCell>
        <mxCell id="ziaKLDMUKJMTF37oqn9J-87" value="" style="endArrow=classic;html=1;rounded=0;" parent="1" edge="1">
          <mxGeometry width="50" height="50" relative="1" as="geometry">
            <mxPoint x="239.77" y="680" as="sourcePoint" />
            <mxPoint x="239.77" y="710" as="targetPoint" />
          </mxGeometry>
        </mxCell>
        <mxCell id="ziaKLDMUKJMTF37oqn9J-88" value="" style="endArrow=classic;html=1;rounded=0;" parent="1" edge="1">
          <mxGeometry width="50" height="50" relative="1" as="geometry">
            <mxPoint x="429.71" y="665" as="sourcePoint" />
            <mxPoint x="429.71" y="695" as="targetPoint" />
          </mxGeometry>
        </mxCell>
        <mxCell id="ziaKLDMUKJMTF37oqn9J-90" value="" style="endArrow=classic;html=1;rounded=0;entryX=0.465;entryY=-0.093;entryDx=0;entryDy=0;entryPerimeter=0;" parent="1" edge="1" target="ziaKLDMUKJMTF37oqn9J-42">
          <mxGeometry width="50" height="50" relative="1" as="geometry">
            <mxPoint x="300" y="605" as="sourcePoint" />
            <mxPoint x="240" y="640" as="targetPoint" />
          </mxGeometry>
        </mxCell>
        <mxCell id="XjXtN_CrpmTkB_k5GkPc-3" value="" style="endArrow=classic;html=1;rounded=0;" edge="1" parent="1">
          <mxGeometry width="50" height="50" relative="1" as="geometry">
            <mxPoint x="639.74" y="380" as="sourcePoint" />
            <mxPoint x="639.74" y="410" as="targetPoint" />
          </mxGeometry>
        </mxCell>
        <mxCell id="XjXtN_CrpmTkB_k5GkPc-4" value="Contact" style="rounded=1;whiteSpace=wrap;html=1;" vertex="1" parent="1">
          <mxGeometry x="680" y="500" width="80" height="40" as="geometry" />
        </mxCell>
        <mxCell id="XjXtN_CrpmTkB_k5GkPc-5" value="" style="endArrow=classic;html=1;rounded=0;entryX=0.498;entryY=-0.084;entryDx=0;entryDy=0;entryPerimeter=0;" edge="1" parent="1" target="ziaKLDMUKJMTF37oqn9J-27">
          <mxGeometry width="50" height="50" relative="1" as="geometry">
            <mxPoint x="639.55" y="450" as="sourcePoint" />
            <mxPoint x="580" y="485" as="targetPoint" />
          </mxGeometry>
        </mxCell>
        <mxCell id="XjXtN_CrpmTkB_k5GkPc-6" value="" style="endArrow=classic;html=1;rounded=0;entryX=0.472;entryY=-0.111;entryDx=0;entryDy=0;entryPerimeter=0;" edge="1" parent="1" target="XjXtN_CrpmTkB_k5GkPc-4">
          <mxGeometry width="50" height="50" relative="1" as="geometry">
            <mxPoint x="640" y="450" as="sourcePoint" />
            <mxPoint x="700" y="480" as="targetPoint" />
          </mxGeometry>
        </mxCell>
        <mxCell id="XjXtN_CrpmTkB_k5GkPc-7" value="" style="endArrow=classic;html=1;rounded=0;entryX=0.491;entryY=-0.048;entryDx=0;entryDy=0;entryPerimeter=0;" edge="1" parent="1" target="XjXtN_CrpmTkB_k5GkPc-8">
          <mxGeometry width="50" height="50" relative="1" as="geometry">
            <mxPoint x="559.74" y="540" as="sourcePoint" />
            <mxPoint x="559.74" y="570" as="targetPoint" />
          </mxGeometry>
        </mxCell>
        <mxCell id="XjXtN_CrpmTkB_k5GkPc-8" value="Show Campus Safety Website" style="rounded=1;whiteSpace=wrap;html=1;" vertex="1" parent="1">
          <mxGeometry x="520" y="570" width="80" height="70" as="geometry" />
        </mxCell>
        <mxCell id="XjXtN_CrpmTkB_k5GkPc-10" value="" style="endArrow=classic;html=1;rounded=0;entryX=0.491;entryY=-0.056;entryDx=0;entryDy=0;entryPerimeter=0;" edge="1" parent="1" target="XjXtN_CrpmTkB_k5GkPc-11">
          <mxGeometry width="50" height="50" relative="1" as="geometry">
            <mxPoint x="720.37" y="540" as="sourcePoint" />
            <mxPoint x="719.63" y="567" as="targetPoint" />
          </mxGeometry>
        </mxCell>
        <mxCell id="XjXtN_CrpmTkB_k5GkPc-11" value="Fill in Contact Information and Comments" style="rounded=1;whiteSpace=wrap;html=1;" vertex="1" parent="1">
          <mxGeometry x="680" y="570" width="80" height="70" as="geometry" />
        </mxCell>
        <mxCell id="XjXtN_CrpmTkB_k5GkPc-14" value="Upload Report" style="rounded=1;whiteSpace=wrap;html=1;" vertex="1" parent="1">
          <mxGeometry x="40" y="585" width="80" height="40" as="geometry" />
        </mxCell>
        <mxCell id="XjXtN_CrpmTkB_k5GkPc-15" value="Condition" style="rhombus;whiteSpace=wrap;html=1;fontColor=#000000;fillColor=#ffffc0;strokeColor=#000000;" vertex="1" parent="1">
          <mxGeometry x="200" y="770" width="80" height="50" as="geometry" />
        </mxCell>
        <mxCell id="XjXtN_CrpmTkB_k5GkPc-16" value="yes" style="edgeStyle=orthogonalEdgeStyle;html=1;align=left;verticalAlign=bottom;endArrow=open;endSize=8;strokeColor=#000000;rounded=0;" edge="1" source="XjXtN_CrpmTkB_k5GkPc-15" parent="1">
          <mxGeometry x="-1" relative="1" as="geometry">
            <mxPoint x="290" y="890" as="targetPoint" />
            <Array as="points">
              <mxPoint x="290" y="800" />
            </Array>
          </mxGeometry>
        </mxCell>
        <mxCell id="XjXtN_CrpmTkB_k5GkPc-17" value="no" style="edgeStyle=orthogonalEdgeStyle;html=1;align=left;verticalAlign=top;endArrow=open;endSize=8;strokeColor=#000000;rounded=0;entryX=0;entryY=0.5;entryDx=0;entryDy=0;" edge="1" source="XjXtN_CrpmTkB_k5GkPc-15" parent="1" target="ziaKLDMUKJMTF37oqn9J-31">
          <mxGeometry x="-1" relative="1" as="geometry">
            <mxPoint x="180" y="500" as="targetPoint" />
            <Array as="points">
              <mxPoint x="180" y="795" />
              <mxPoint x="180" y="500" />
            </Array>
          </mxGeometry>
        </mxCell>
        <mxCell id="XjXtN_CrpmTkB_k5GkPc-18" value="Choose the Item" style="rounded=1;whiteSpace=wrap;html=1;" vertex="1" parent="1">
          <mxGeometry x="250" y="895" width="80" height="40" as="geometry" />
        </mxCell>
        <mxCell id="XjXtN_CrpmTkB_k5GkPc-19" value="" style="endArrow=classic;html=1;rounded=0;entryX=0.557;entryY=-0.126;entryDx=0;entryDy=0;entryPerimeter=0;exitX=0.663;exitY=0.986;exitDx=0;exitDy=0;exitPerimeter=0;" edge="1" parent="1" source="XjXtN_CrpmTkB_k5GkPc-18" target="XjXtN_CrpmTkB_k5GkPc-22">
          <mxGeometry width="50" height="50" relative="1" as="geometry">
            <mxPoint x="300" y="935" as="sourcePoint" />
            <mxPoint x="330" y="965" as="targetPoint" />
          </mxGeometry>
        </mxCell>
        <mxCell id="XjXtN_CrpmTkB_k5GkPc-20" value="" style="endArrow=classic;html=1;rounded=0;entryX=0.488;entryY=-0.141;entryDx=0;entryDy=0;entryPerimeter=0;exitX=0.448;exitY=1;exitDx=0;exitDy=0;exitPerimeter=0;" edge="1" parent="1" source="XjXtN_CrpmTkB_k5GkPc-18" target="XjXtN_CrpmTkB_k5GkPc-21">
          <mxGeometry width="50" height="50" relative="1" as="geometry">
            <mxPoint x="280" y="935" as="sourcePoint" />
            <mxPoint x="250" y="965" as="targetPoint" />
          </mxGeometry>
        </mxCell>
        <mxCell id="XjXtN_CrpmTkB_k5GkPc-21" value="Claim the Item" style="rounded=1;whiteSpace=wrap;html=1;" vertex="1" parent="1">
          <mxGeometry x="220" y="970" width="60" height="30" as="geometry" />
        </mxCell>
        <mxCell id="XjXtN_CrpmTkB_k5GkPc-22" value="Contact Reporter" style="rounded=1;whiteSpace=wrap;html=1;" vertex="1" parent="1">
          <mxGeometry x="300" y="970" width="60" height="30" as="geometry" />
        </mxCell>
        <mxCell id="XjXtN_CrpmTkB_k5GkPc-23" value="" style="ellipse;html=1;shape=endState;fillColor=#000000;strokeColor=#000000;" vertex="1" parent="1">
          <mxGeometry x="275" y="1130" width="30" height="30" as="geometry" />
        </mxCell>
        <mxCell id="XjXtN_CrpmTkB_k5GkPc-24" value="" style="endArrow=classic;html=1;rounded=0;" edge="1" parent="1">
          <mxGeometry width="50" height="50" relative="1" as="geometry">
            <mxPoint x="240" y="750" as="sourcePoint" />
            <mxPoint x="239.72" y="770" as="targetPoint" />
          </mxGeometry>
        </mxCell>
        <mxCell id="XjXtN_CrpmTkB_k5GkPc-28" value="" style="endArrow=classic;html=1;rounded=0;entryX=0.5;entryY=0;entryDx=0;entryDy=0;" edge="1" parent="1" target="XjXtN_CrpmTkB_k5GkPc-14">
          <mxGeometry width="50" height="50" relative="1" as="geometry">
            <mxPoint x="80.44" y="540" as="sourcePoint" />
            <mxPoint x="80" y="576" as="targetPoint" />
          </mxGeometry>
        </mxCell>
        <mxCell id="XjXtN_CrpmTkB_k5GkPc-29" value="" style="endArrow=none;html=1;rounded=0;" edge="1" parent="1">
          <mxGeometry width="50" height="50" relative="1" as="geometry">
            <mxPoint x="80" y="1140" as="sourcePoint" />
            <mxPoint x="80" y="720" as="targetPoint" />
          </mxGeometry>
        </mxCell>
        <mxCell id="XjXtN_CrpmTkB_k5GkPc-30" value="" style="endArrow=classic;html=1;rounded=0;entryX=-0.016;entryY=0.438;entryDx=0;entryDy=0;entryPerimeter=0;" edge="1" parent="1" target="XjXtN_CrpmTkB_k5GkPc-23">
          <mxGeometry width="50" height="50" relative="1" as="geometry">
            <mxPoint x="80" y="1140" as="sourcePoint" />
            <mxPoint x="135" y="1160" as="targetPoint" />
          </mxGeometry>
        </mxCell>
        <mxCell id="XjXtN_CrpmTkB_k5GkPc-31" value="" style="endArrow=classic;html=1;rounded=0;entryX=0.118;entryY=0.029;entryDx=0;entryDy=0;exitX=0.449;exitY=1.115;exitDx=0;exitDy=0;exitPerimeter=0;entryPerimeter=0;" edge="1" parent="1" source="XjXtN_CrpmTkB_k5GkPc-21" target="XjXtN_CrpmTkB_k5GkPc-23">
          <mxGeometry width="50" height="50" relative="1" as="geometry">
            <mxPoint x="150" y="980" as="sourcePoint" />
            <mxPoint x="120" y="1010" as="targetPoint" />
          </mxGeometry>
        </mxCell>
        <mxCell id="XjXtN_CrpmTkB_k5GkPc-32" value="" style="endArrow=classic;html=1;rounded=0;entryX=0.678;entryY=-0.051;entryDx=0;entryDy=0;entryPerimeter=0;" edge="1" parent="1" target="XjXtN_CrpmTkB_k5GkPc-23">
          <mxGeometry width="50" height="50" relative="1" as="geometry">
            <mxPoint x="330" y="1000" as="sourcePoint" />
            <mxPoint x="389.39339828220295" y="1154.393398282203" as="targetPoint" />
          </mxGeometry>
        </mxCell>
        <mxCell id="XjXtN_CrpmTkB_k5GkPc-33" value="Provide Location" style="rounded=1;whiteSpace=wrap;html=1;" vertex="1" parent="1">
          <mxGeometry x="390" y="700" width="80" height="40" as="geometry" />
        </mxCell>
        <mxCell id="XjXtN_CrpmTkB_k5GkPc-34" value="" style="endArrow=classic;html=1;rounded=0;entryX=1;entryY=0.5;entryDx=0;entryDy=0;" edge="1" parent="1" target="ziaKLDMUKJMTF37oqn9J-42">
          <mxGeometry width="50" height="50" relative="1" as="geometry">
            <mxPoint x="340" y="660" as="sourcePoint" />
            <mxPoint x="350" y="745" as="targetPoint" />
          </mxGeometry>
        </mxCell>
        <mxCell id="XjXtN_CrpmTkB_k5GkPc-35" value="" style="endArrow=none;html=1;rounded=0;" edge="1" parent="1">
          <mxGeometry width="50" height="50" relative="1" as="geometry">
            <mxPoint x="430" y="790" as="sourcePoint" />
            <mxPoint x="430" y="740" as="targetPoint" />
          </mxGeometry>
        </mxCell>
        <mxCell id="XjXtN_CrpmTkB_k5GkPc-36" value="" style="endArrow=none;html=1;rounded=0;" edge="1" parent="1">
          <mxGeometry width="50" height="50" relative="1" as="geometry">
            <mxPoint x="340" y="790" as="sourcePoint" />
            <mxPoint x="340" y="660" as="targetPoint" />
          </mxGeometry>
        </mxCell>
        <mxCell id="XjXtN_CrpmTkB_k5GkPc-37" value="" style="endArrow=none;html=1;rounded=0;" edge="1" parent="1">
          <mxGeometry width="50" height="50" relative="1" as="geometry">
            <mxPoint x="340" y="790" as="sourcePoint" />
            <mxPoint x="430" y="790" as="targetPoint" />
          </mxGeometry>
        </mxCell>
        <mxCell id="XjXtN_CrpmTkB_k5GkPc-38" value="" style="endArrow=none;html=1;rounded=0;" edge="1" parent="1">
          <mxGeometry width="50" height="50" relative="1" as="geometry">
            <mxPoint x="560" y="1140" as="sourcePoint" />
            <mxPoint x="560" y="640" as="targetPoint" />
          </mxGeometry>
        </mxCell>
        <mxCell id="XjXtN_CrpmTkB_k5GkPc-39" value="" style="endArrow=none;html=1;rounded=0;" edge="1" parent="1">
          <mxGeometry width="50" height="50" relative="1" as="geometry">
            <mxPoint x="720" y="1140" as="sourcePoint" />
            <mxPoint x="720" y="640" as="targetPoint" />
          </mxGeometry>
        </mxCell>
        <mxCell id="XjXtN_CrpmTkB_k5GkPc-42" value="" style="endArrow=classic;html=1;rounded=0;entryX=1.078;entryY=0.456;entryDx=0;entryDy=0;entryPerimeter=0;" edge="1" parent="1" target="XjXtN_CrpmTkB_k5GkPc-23">
          <mxGeometry width="50" height="50" relative="1" as="geometry">
            <mxPoint x="720" y="1140" as="sourcePoint" />
            <mxPoint x="299" y="1143" as="targetPoint" />
          </mxGeometry>
        </mxCell>
      </root>
    </mxGraphModel>
  </diagram>
</mxfile>
